<svg width="80" height="80" viewBox="0 0 80 80" fill="none" xmlns="http://www.w3.org/2000/svg">
<path d="M0 11.9915C0 5.36404 5.37258 -0.00854492 12 -0.00854492H68C74.6274 -0.00854492 80 5.36404 80 11.9915V67.9915C80 74.6189 74.6274 79.9915 68 79.9915H12C5.37258 79.9915 0 74.6189 0 67.9915V11.9915Z" fill="#DD6600" fill-opacity="0.1"/>
<path d="M26.1193 59.9915V54.6619L40.2585 40.8011C41.6108 39.4356 42.7377 38.2225 43.6392 37.1619C44.5407 36.1013 45.2169 35.0738 45.6676 34.0795C46.1184 33.0852 46.3438 32.0246 46.3438 30.8977C46.3438 29.6117 46.0521 28.5113 45.4688 27.5966C44.8854 26.6685 44.0833 25.9526 43.0625 25.4488C42.0417 24.9451 40.8816 24.6932 39.5824 24.6932C38.2434 24.6932 37.0701 24.9716 36.0625 25.5284C35.0549 26.0719 34.2727 26.8475 33.7159 27.8551C33.1723 28.8627 32.9006 30.0625 32.9006 31.4545H25.8807C25.8807 28.8693 26.4706 26.6221 27.6506 24.713C28.8305 22.804 30.4545 21.3257 32.5227 20.2784C34.6042 19.231 36.9905 18.7074 39.6818 18.7074C42.4129 18.7074 44.8125 19.2178 46.8807 20.2386C48.9489 21.2594 50.553 22.6581 51.6932 24.4346C52.8466 26.2112 53.4233 28.2396 53.4233 30.5199C53.4233 32.0445 53.1316 33.5426 52.5483 35.0142C51.965 36.4858 50.9375 38.1165 49.4659 39.9062C48.0076 41.696 45.9593 43.8636 43.321 46.4091L36.3011 53.5483V53.8267H54.0398V59.9915H26.1193Z" fill="#DD6600"/>
</svg>
