<svg width="173" height="145" viewBox="0 0 173 145" fill="none" xmlns="http://www.w3.org/2000/svg">
<path d="M0.666667 5.86508C0.666667 8.8106 3.05448 11.1984 6 11.1984C8.94552 11.1984 11.3333 8.8106 11.3333 5.86508C11.3333 2.91957 8.94552 0.531751 6 0.531751C3.05448 0.531751 0.666667 2.91957 0.666667 5.86508ZM105 72.3651L105.807 71.7742L105 72.3651ZM173 138.365L162.772 133.006L163.245 144.543L173 138.365ZM6.27778 6.82573C7.86656 6.36632 9.84041 6.06221 12.1737 6.00231L12.1223 4.00297C9.64998 4.06644 7.50289 4.38955 5.72222 4.90444L6.27778 6.82573ZM24.2273 7.48578C27.7611 8.35996 31.6457 9.65753 35.8389 11.4804L36.6363 9.64619C32.3476 7.78183 28.357 6.44709 24.7075 5.5443L24.2273 7.48578ZM46.8102 17.1139C50.1173 19.0656 53.5609 21.3221 57.1258 23.9192L58.3034 22.3027C54.6887 19.6693 51.1915 17.3772 47.8267 15.3915L46.8102 17.1139ZM66.8249 31.6053C69.8055 34.1574 72.8534 36.9423 75.9614 39.9779L77.3588 38.5471C74.2207 35.4821 71.1406 32.6676 68.1257 30.0861L66.8249 31.6053ZM84.5757 48.8861C87.2581 51.8149 89.9776 54.9299 92.7297 58.2413L94.2679 56.9629C91.4959 53.6276 88.7553 50.4885 86.0506 47.5352L84.5757 48.8861ZM100.467 67.9681C101.703 69.5905 102.946 71.2529 104.193 72.956L105.807 71.7742C104.552 70.0609 103.302 68.3883 102.057 66.7556L100.467 67.9681ZM104.193 72.956C105.427 74.6406 106.641 76.2854 107.836 77.8914L109.441 76.6976C108.249 75.0957 107.038 73.4548 105.807 71.7742L104.193 72.956ZM115.224 87.6527C117.85 91.0584 120.37 94.2577 122.787 97.2616L124.345 96.0076C121.937 93.0153 119.426 89.827 116.808 86.4317L115.224 87.6527ZM130.562 106.672C133.432 110.049 136.134 113.112 138.674 115.887L140.149 114.536C137.627 111.781 134.942 108.736 132.086 105.377L130.562 106.672ZM147.171 124.71C150.592 128.058 153.632 130.761 156.321 132.915L157.571 131.354C154.944 129.25 151.953 126.592 148.57 123.281L147.171 124.71Z" fill="#DD6600"/>
</svg>
