<svg width="27" height="26" viewBox="0 0 27 26" fill="none" xmlns="http://www.w3.org/2000/svg">
<circle cx="13.1152" cy="13" r="13" fill="#F3F4F4"/>
<path d="M20.394 13.0507C20.394 9.00547 17.135 5.72656 13.114 5.72656C9.093 5.72656 5.83398 9.00547 5.83398 13.0507C5.83398 16.7072 8.49555 19.7372 11.9764 20.2866V15.1682H10.1282V13.0502H11.9764V11.437C11.9764 9.60146 13.063 8.58712 14.7263 8.58712C15.5222 8.58712 16.356 8.73029 16.356 8.73029V10.5328H15.4373C14.5331 10.5328 14.2516 11.0977 14.2516 11.6772V13.0507H16.2706L15.9478 15.1678H14.2516V20.2866C17.7324 19.7372 20.394 16.7072 20.394 13.0507Z" fill="#333A42"/>
</svg>
