<svg width="26" height="26" viewBox="0 0 26 26" fill="none" xmlns="http://www.w3.org/2000/svg">
<circle cx="13" cy="13" r="13" fill="#F3F4F4"/>
<path fill-rule="evenodd" clip-rule="evenodd" d="M12.9978 6.76562C11.303 6.76562 11.0909 6.7727 10.4253 6.80307C9.76092 6.83343 9.30706 6.9391 8.9102 7.09343C8.4942 7.24985 8.11688 7.49529 7.80488 7.81311C7.48757 8.12475 7.24198 8.5018 7.0852 8.91801C6.9317 9.31487 6.82562 9.76915 6.79525 10.4335C6.7653 11.0987 6.75781 11.3104 6.75781 13.0056C6.75781 14.7008 6.76488 14.9126 6.79525 15.5782C6.82562 16.2425 6.93128 16.6964 7.08562 17.0932C7.24204 17.5092 7.48748 17.8866 7.8053 18.1986C8.11695 18.5159 8.49399 18.7614 8.9102 18.9182C9.30706 19.0722 9.76092 19.1778 10.4253 19.2082C11.0909 19.2386 11.303 19.2456 12.9978 19.2456C14.6926 19.2456 14.9048 19.2386 15.5704 19.2082C16.2347 19.1778 16.6886 19.0722 17.0854 18.9178C17.5014 18.7614 17.8787 18.516 18.1907 18.1981C18.5081 17.8865 18.7536 17.5095 18.9104 17.0932C19.0643 16.6964 19.17 16.2425 19.2004 15.5782C19.2307 14.9126 19.2378 14.7004 19.2378 13.0056C19.2378 11.3108 19.2307 11.0987 19.2004 10.4331C19.17 9.76873 19.0643 9.31487 18.91 8.91801C18.7533 8.50162 18.5077 8.12441 18.1903 7.8127C17.8787 7.49538 17.5016 7.24979 17.0854 7.09302C16.6886 6.93951 16.2343 6.83343 15.5699 6.80307C14.9048 6.77311 14.693 6.76562 12.9978 6.76562ZM12.9978 7.89007C14.6639 7.89007 14.8615 7.89631 15.5196 7.92627C16.1278 7.95414 16.4581 8.05523 16.6782 8.14134C16.9694 8.25407 17.1774 8.38969 17.3958 8.60767C17.6142 8.82607 17.7494 9.03407 17.8621 9.32527C17.9478 9.54534 18.0493 9.87564 18.0772 10.4838C18.1071 11.1419 18.1134 11.3395 18.1134 13.0056C18.1134 14.6717 18.1071 14.8693 18.0772 15.5274C18.0493 16.1356 17.9482 16.4659 17.8621 16.686C17.7622 16.957 17.6029 17.2022 17.3958 17.4036C17.1945 17.6107 16.9492 17.7701 16.6782 17.8699C16.4581 17.9556 16.1278 18.0571 15.5196 18.085C14.8615 18.1149 14.6643 18.1212 12.9978 18.1212C11.3313 18.1212 11.1341 18.1149 10.476 18.085C9.86783 18.0571 9.53752 17.956 9.31746 17.8699C9.04642 17.77 8.80121 17.6107 8.59986 17.4036C8.39277 17.2022 8.23342 16.957 8.13352 16.686C8.04783 16.4659 7.94632 16.1356 7.91845 15.5274C7.8885 14.8693 7.88226 14.6717 7.88226 13.0056C7.88226 11.3395 7.8885 11.1419 7.91845 10.4838C7.94632 9.87564 8.04741 9.54534 8.13352 9.32527C8.24626 9.03407 8.38188 8.82607 8.59986 8.60767C8.80118 8.40052 9.0464 8.24117 9.31746 8.14134C9.53752 8.05564 9.86783 7.95414 10.476 7.92627C11.1341 7.89631 11.3317 7.89007 12.9978 7.89007Z" fill="#333A42"/>
<path fill-rule="evenodd" clip-rule="evenodd" d="M12.9989 15.0878C12.7254 15.0878 12.4547 15.0339 12.2021 14.9293C11.9495 14.8247 11.7199 14.6713 11.5266 14.4779C11.3333 14.2846 11.1799 14.0551 11.0753 13.8025C10.9706 13.5499 10.9168 13.2791 10.9168 13.0057C10.9168 12.7323 10.9706 12.4615 11.0753 12.2089C11.1799 11.9563 11.3333 11.7268 11.5266 11.5334C11.7199 11.3401 11.9495 11.1867 12.2021 11.0821C12.4547 10.9775 12.7254 10.9236 12.9989 10.9236C13.5511 10.9236 14.0807 11.143 14.4711 11.5334C14.8616 11.9239 15.0809 12.4535 15.0809 13.0057C15.0809 13.5579 14.8616 14.0875 14.4711 14.4779C14.0807 14.8684 13.5511 15.0878 12.9989 15.0878ZM12.9989 9.79833C12.1482 9.79833 11.3324 10.1363 10.7309 10.7377C10.1294 11.3392 9.7915 12.155 9.7915 13.0057C9.7915 13.8563 10.1294 14.6721 10.7309 15.2736C11.3324 15.8751 12.1482 16.2131 12.9989 16.2131C13.8495 16.2131 14.6653 15.8751 15.2668 15.2736C15.8683 14.6721 16.2062 13.8563 16.2062 13.0057C16.2062 12.155 15.8683 11.3392 15.2668 10.7377C14.6653 10.1363 13.8495 9.79833 12.9989 9.79833ZM17.1393 9.74009C17.1393 9.94117 17.0594 10.134 16.9173 10.2762C16.7751 10.4184 16.5822 10.4983 16.3812 10.4983C16.1801 10.4983 15.9872 10.4184 15.8451 10.2762C15.7029 10.134 15.623 9.94117 15.623 9.74009C15.623 9.53902 15.7029 9.34618 15.8451 9.20399C15.9872 9.06181 16.1801 8.98193 16.3812 8.98193C16.5822 8.98193 16.7751 9.06181 16.9173 9.20399C17.0594 9.34618 17.1393 9.53902 17.1393 9.74009Z" fill="#333A42"/>
</svg>
