<svg width="50" height="51" viewBox="0 0 50 51" fill="none" xmlns="http://www.w3.org/2000/svg">
<path d="M25 0.921875C11.2 0.921875 0 12.1219 0 25.9219C0 39.7219 11.2 50.9219 25 50.9219C38.8 50.9219 50 39.7219 50 25.9219C50 12.1219 38.8 0.921875 25 0.921875ZM33.75 27.7969H20.775L25.075 32.0969C25.8 32.8219 25.8 34.0219 25.075 34.7469C24.7 35.1219 24.225 35.2969 23.75 35.2969C23.275 35.2969 22.8 35.1219 22.425 34.7469L14.925 27.2469C14.2 26.5219 14.2 25.3219 14.925 24.5969L22.425 17.0969C23.15 16.3719 24.35 16.3719 25.075 17.0969C25.8 17.8219 25.8 19.0219 25.075 19.7469L20.775 24.0469H33.75C34.775 24.0469 35.625 24.8969 35.625 25.9219C35.625 26.9469 34.775 27.7969 33.75 27.7969Z" fill="#DDD8D3"/>
</svg>
