<svg width="27" height="26" viewBox="0 0 27 26" fill="none" xmlns="http://www.w3.org/2000/svg">
<circle cx="13.2305" cy="13" r="13" fill="#F3F4F4"/>
<path d="M19.4741 7.68327V18.328C19.4741 18.5714 19.3775 18.8048 19.2054 18.9769C19.0333 19.1489 18.7999 19.2456 18.5565 19.2456H7.91179C7.66841 19.2456 7.43501 19.1489 7.26291 18.9769C7.09082 18.8048 6.99414 18.5714 6.99414 18.328V7.68327C6.99414 7.4399 7.09082 7.20649 7.26291 7.0344C7.43501 6.86231 7.66841 6.76562 7.91179 6.76562H18.5565C18.7999 6.76562 19.0333 6.86231 19.2054 7.0344C19.3775 7.20649 19.4741 7.4399 19.4741 7.68327ZM10.6647 11.5374H8.82943V17.4103H10.6647V11.5374ZM10.8299 9.51857C10.8309 9.37974 10.8045 9.24208 10.7523 9.11346C10.7 8.98483 10.623 8.86775 10.5255 8.76891C10.428 8.67006 10.312 8.59138 10.1841 8.53737C10.0562 8.48335 9.91894 8.45506 9.78012 8.4541H9.74708C9.46477 8.4541 9.19401 8.56624 8.99439 8.76587C8.79476 8.9655 8.68261 9.23625 8.68261 9.51857C8.68261 9.80088 8.79476 10.0716 8.99439 10.2713C9.19401 10.4709 9.46477 10.583 9.74708 10.583C9.88592 10.5865 10.0241 10.5625 10.1536 10.5125C10.2832 10.4625 10.4016 10.3875 10.5022 10.2917C10.6028 10.1959 10.6835 10.0812 10.7397 9.95424C10.7959 9.82726 10.8266 9.69044 10.8299 9.5516V9.51857ZM17.6388 13.8425C17.6388 12.077 16.5156 11.3906 15.3998 11.3906C15.0344 11.3723 14.6707 11.4501 14.3448 11.6163C14.0189 11.7824 13.7422 12.0311 13.5425 12.3376H13.4911V11.5374H11.7659V17.4103H13.6012V14.2867C13.5747 13.9667 13.6754 13.6493 13.8816 13.4032C14.0878 13.1572 14.3828 13.0024 14.7024 12.9726H14.7721C15.3557 12.9726 15.7889 13.3396 15.7889 14.2646V17.4103H17.6242L17.6388 13.8425Z" fill="#333A42"/>
</svg>
