<svg width="132" height="46" viewBox="0 0 132 46" fill="none" xmlns="http://www.w3.org/2000/svg">
<g clip-path="url(#clip0_2285_15812)">
<path fill-rule="evenodd" clip-rule="evenodd" d="M81.7217 22.7949C81.7217 20.3418 85.447 20.3359 85.447 22.7949C85.447 25.2539 81.7217 25.2519 81.7217 22.7949Z" fill="#DD6600"/>
<path fill-rule="evenodd" clip-rule="evenodd" d="M28.9148 30.6614V5.21615C28.9148 4.05833 28.4399 3.00404 27.6753 2.23946C26.9107 1.47488 25.8574 1 24.6986 1H4.21516C3.05733 1 2.00305 1.47488 1.23846 2.23946C0.474877 3.00404 0 4.05833 0 5.21615V7.90215C0 9.05997 0.474877 10.1143 1.23946 10.8788C2.00404 11.6434 3.05733 12.1183 4.21615 12.1183H11.4538C13.6858 12.1183 15.0059 12.8918 15.7864 14.4509C16.4754 15.8277 16.6466 17.774 16.6466 20.3495V40.8349C16.6466 40.9803 16.6506 41.1087 16.6585 41.2232C16.7342 42.3054 17.1215 43.3228 17.7507 44.0645C18.2843 44.6927 19.0011 45.1158 19.8513 45.1855V41.711C19.8513 41.1983 20.2704 40.7782 20.7841 40.7782C21.2978 40.7782 21.7169 41.1983 21.7169 41.711V44.7803C22.3889 44.4607 23.1037 43.9769 23.8056 43.3995V38.6517C23.8056 38.139 24.2247 37.7189 24.7384 37.7189C25.2521 37.7189 25.6713 38.139 25.6713 38.6517V41.6214C26.7664 40.4218 27.6464 39.1475 28.0496 38.1549C28.9715 35.8841 28.9377 32.4723 28.9227 31.0517C28.9187 30.7022 28.9167 30.9033 28.9167 30.6644L28.9148 30.6614Z" fill="#DD6600"/>
<path fill-rule="evenodd" clip-rule="evenodd" d="M91.7958 26.8906C93.8725 25.5078 96.3256 25.0966 98.7179 26.0722C100.917 26.9692 99.4645 30.0554 97.4784 29.1136C97.2484 29.0041 97.0055 28.9235 96.7566 28.8687C94.2369 28.3242 91.8177 30.3421 91.8177 32.9027V38.6201C91.8177 40.7616 88.5623 40.7616 88.5623 38.6201V27.1763C88.5623 25.1354 91.519 25.0398 91.7968 26.8896L91.7958 26.8906Z" fill="#DD6600"/>
<path fill-rule="evenodd" clip-rule="evenodd" d="M81.9617 27.1773C81.9617 25.0408 85.2171 25.0468 85.2171 27.1773V38.6211C85.2171 40.7576 81.9617 40.7655 81.9617 38.6211V27.1773Z" fill="#DD6600"/>
<path fill-rule="evenodd" clip-rule="evenodd" d="M67.7642 26.8139C68.9997 25.9348 70.2322 25.5535 71.8619 25.5535C78.3818 25.5535 81.6532 33.4851 77.0467 38.0915C72.4374 42.7009 64.5088 39.4245 64.5088 32.9027V21.6709C64.5088 19.5295 67.7642 19.5324 67.7642 21.6669V26.8139ZM71.8619 36.9894C75.4847 36.9894 77.3185 32.5702 74.753 30.0096C72.1775 27.4401 67.7642 29.255 67.7642 32.8987C67.7642 35.1706 69.5921 36.9894 71.8619 36.9894Z" fill="#DD6600"/>
<path fill-rule="evenodd" clip-rule="evenodd" d="M59.5478 38.9039C57.0072 40.5784 53.8991 40.7805 51.2957 38.9905C49.2897 37.6107 48.092 35.3348 48.092 32.8987C48.092 26.7811 55.1525 23.4002 59.8784 27.0439C60.7604 25.897 62.7834 26.4545 62.7834 28.0583V38.6211C62.7834 40.667 59.8226 40.7536 59.5488 38.9039H59.5478ZM55.4452 28.809C51.8035 28.809 49.9686 33.2123 52.5501 35.7888C55.1236 38.3573 59.5279 36.5374 59.5279 32.8997C59.5279 30.6239 57.724 28.809 55.4452 28.809Z" fill="#DD6600"/>
<path fill-rule="evenodd" clip-rule="evenodd" d="M44.7031 23.2787V38.6201C44.7031 40.7765 41.4715 40.7546 41.4715 38.6201V23.2787H36.9577C34.8352 23.2787 34.8362 20.0472 36.9577 20.0472H49.2169C51.3564 20.0472 51.3574 23.2787 49.2169 23.2787H44.7031Z" fill="#DD6600"/>
<path fill-rule="evenodd" clip-rule="evenodd" d="M33.4505 10.793C34.2091 11.5526 35.2565 12.0245 36.4103 12.0245H36.4262V12.0285L43.2149 12.0076C45.9158 11.9996 48.4624 10.9254 50.3689 9.35148C52.3341 7.72873 53.5965 5.59427 53.5965 3.59521C53.5965 2.89832 53.1774 2.29303 52.5591 1.83806C51.7985 1.27856 50.7671 0.946049 49.7795 0.912201V4.21345C49.7795 4.72615 49.3604 5.14628 48.8467 5.14628C48.333 5.14628 47.9139 4.72615 47.9139 4.21345V0.909214H46.1976V4.21245C46.1976 4.72516 45.7784 5.14528 45.2647 5.14528C44.751 5.14528 44.3319 4.72516 44.3319 4.21245V0.909214H42.6156V4.21245C42.6156 4.72516 42.1964 5.14528 41.6827 5.14528C41.169 5.14528 40.7499 4.72516 40.7499 4.21245V0.909214H36.4232C35.2654 0.909214 34.2111 1.38409 33.4475 2.14867C32.683 2.91326 32.2081 3.96655 32.2081 5.12537V7.82729H32.2041C32.2071 8.97815 32.683 10.0295 33.4465 10.795L33.4505 10.793Z" fill="#333A42"/>
<path fill-rule="evenodd" clip-rule="evenodd" d="M115.583 32.8066C115.583 39.3285 107.657 42.6098 103.046 37.9994C98.4341 33.388 101.716 25.4615 108.238 25.4615C112.316 25.4615 115.583 28.7289 115.583 32.8066ZM108.246 28.7169C104.605 28.7169 102.771 33.1202 105.351 35.6967C107.925 38.2652 112.328 36.4454 112.328 32.8076C112.328 30.5318 110.524 28.7169 108.245 28.7169H108.246Z" fill="#333A42"/>
<path fill-rule="evenodd" clip-rule="evenodd" d="M132 32.8066C132 39.3285 124.073 42.6098 119.462 37.9994C114.851 33.388 118.133 25.4615 124.655 25.4615C128.733 25.4615 132 28.7289 132 32.8066ZM124.663 28.7169C121.021 28.7169 119.187 33.1202 121.768 35.6967C124.341 38.2652 128.745 36.4454 128.745 32.8076C128.745 30.5318 126.941 28.7169 124.662 28.7169H124.663Z" fill="#333A42"/>
</g>
<defs>
<clipPath id="clip0_2285_15812">
<rect width="132" height="44.1815" fill="white" transform="translate(0 0.909237)"/>
</clipPath>
</defs>
</svg>
