<svg width="50" height="51" viewBox="0 0 50 51" fill="none" xmlns="http://www.w3.org/2000/svg">
<path d="M25 0.921875C11.2 0.921875 0 12.1219 0 25.9219C0 39.7219 11.2 50.9219 25 50.9219C38.8 50.9219 50 39.7219 50 25.9219C50 12.1219 38.8 0.921875 25 0.921875ZM35.075 27.2469L27.575 34.7469C27.2 35.1219 26.725 35.2969 26.25 35.2969C25.775 35.2969 25.3 35.1219 24.925 34.7469C24.2 34.0219 24.2 32.8219 24.925 32.0969L29.225 27.7969H16.25C15.225 27.7969 14.375 26.9469 14.375 25.9219C14.375 24.8969 15.225 24.0469 16.25 24.0469H29.225L24.925 19.7469C24.2 19.0219 24.2 17.8219 24.925 17.0969C25.65 16.3719 26.85 16.3719 27.575 17.0969L35.075 24.5969C35.8 25.3219 35.8 26.5219 35.075 27.2469Z" fill="#DD6600"/>
</svg>
