<svg width="1439" height="332" viewBox="0 0 1439 332" fill="none" xmlns="http://www.w3.org/2000/svg">
<g clip-path="url(#clip0_2517_6579)">
<rect width="1439" height="332" fill="#DD6600"/>
<g opacity="0.1" clip-path="url(#clip1_2517_6579)">
<path fill-rule="evenodd" clip-rule="evenodd" d="M120.725 32.3313C120.725 28.7075 126.228 28.6986 126.228 32.3313C126.228 35.9639 120.725 35.961 120.725 32.3313Z" fill="white"/>
<path fill-rule="evenodd" clip-rule="evenodd" d="M42.715 43.9522V6.36257C42.715 4.65214 42.0135 3.09467 40.884 1.96518C39.7545 0.835679 38.1985 0.134155 36.4866 0.134155H6.22694C4.51652 0.134155 2.95905 0.835679 1.82955 1.96518C0.701523 3.09467 0 4.65214 0 6.36257V10.3305C0 12.0409 0.701523 13.5984 1.83102 14.7279C2.96052 15.8574 4.51652 16.5589 6.22841 16.5589H16.9204C20.2177 16.5589 22.1678 17.7017 23.3209 20.0048C24.3386 22.0387 24.5916 24.914 24.5916 28.7187V58.9812C24.5916 59.196 24.5974 59.3857 24.6092 59.5548C24.721 61.1535 25.2931 62.6565 26.2226 63.7522C27.0109 64.6802 28.0698 65.3053 29.3257 65.4082V60.2755C29.3257 59.5181 29.9449 58.8974 30.7038 58.8974C31.4627 58.8974 32.0818 59.5181 32.0818 60.2755V64.8096C33.0745 64.3375 34.1305 63.6228 35.1674 62.7698V55.756C35.1674 54.9986 35.7865 54.378 36.5454 54.378C37.3043 54.378 37.9234 54.9986 37.9234 55.756V60.1431C39.5412 58.3709 40.8413 56.4884 41.4369 55.0221C42.7988 51.6675 42.7488 46.6274 42.7267 44.5287C42.7209 44.0125 42.7179 44.3095 42.7179 43.9566L42.715 43.9522Z" fill="white"/>
<path fill-rule="evenodd" clip-rule="evenodd" d="M135.607 38.3817C138.675 36.3389 142.299 35.7315 145.833 37.1728C149.082 38.4979 146.936 43.0571 144.002 41.6658C143.662 41.504 143.304 41.3849 142.936 41.304C139.214 40.4996 135.64 43.4807 135.64 47.2633V55.7095C135.64 58.873 130.831 58.873 130.831 55.7095V38.8038C130.831 35.7889 135.199 35.6477 135.609 38.3803L135.607 38.3817Z" fill="white"/>
<path fill-rule="evenodd" clip-rule="evenodd" d="M121.08 38.8051C121.08 35.6489 125.889 35.6578 125.889 38.8051V55.7108C125.889 58.8669 121.08 58.8786 121.08 55.7108V38.8051Z" fill="white"/>
<path fill-rule="evenodd" clip-rule="evenodd" d="M100.107 38.2683C101.932 36.9696 103.752 36.4064 106.16 36.4064C115.792 36.4064 120.624 48.1234 113.819 54.9283C107.01 61.7377 95.2974 56.8976 95.2974 47.2631V30.6706C95.2974 27.5072 100.107 27.5116 100.107 30.6648V38.2683ZM106.16 53.3003C111.512 53.3003 114.221 46.7718 110.431 42.9892C106.626 39.1933 100.107 41.8744 100.107 47.2572C100.107 50.6133 102.807 53.3003 106.16 53.3003Z" fill="white"/>
<path fill-rule="evenodd" clip-rule="evenodd" d="M87.9683 56.1285C84.215 58.6022 79.6235 58.9008 75.7776 56.2565C72.8142 54.2181 71.0449 50.856 71.0449 47.2572C71.0449 38.2198 81.4751 33.2253 88.4565 38.6081C89.7596 36.9138 92.748 37.7374 92.748 40.1067V55.7108C92.748 58.7331 88.3742 58.8611 87.9697 56.1285H87.9683ZM81.9075 41.2156C76.5277 41.2156 73.8172 47.7205 77.6307 51.5267C81.4325 55.3211 87.9388 52.6326 87.9388 47.2587C87.9388 43.8967 85.2739 41.2156 81.9075 41.2156Z" fill="white"/>
<path fill-rule="evenodd" clip-rule="evenodd" d="M66.0387 33.0459V55.7093C66.0387 58.8949 61.2649 58.8625 61.2649 55.7093V33.0459H54.5967C51.4612 33.0459 51.4626 28.272 54.5967 28.272H72.7069C75.8674 28.272 75.8689 33.0459 72.7069 33.0459H66.0387Z" fill="white"/>
<path fill-rule="evenodd" clip-rule="evenodd" d="M49.4155 14.6011C50.5362 15.7232 52.0834 16.4204 53.7879 16.4204H53.8115V16.4262L63.8401 16.3954C67.8302 16.3836 71.5922 14.7967 74.4086 12.4715C77.3118 10.0743 79.1766 6.92111 79.1766 3.96795C79.1766 2.93846 78.5574 2.04427 77.6441 1.37216C76.5205 0.545629 74.9969 0.0544159 73.5379 0.0044121V4.88125C73.5379 5.63866 72.9188 6.2593 72.1599 6.2593C71.401 6.2593 70.7819 5.63866 70.7819 4.88125V0H68.2464V4.87978C68.2464 5.63719 67.6272 6.25783 66.8683 6.25783C66.1094 6.25783 65.4903 5.63719 65.4903 4.87978V0H62.9548V4.87978C62.9548 5.63719 62.3356 6.25783 61.5767 6.25783C60.8179 6.25783 60.1987 5.63719 60.1987 4.87978V0H53.807C52.0966 0 50.5391 0.701524 49.4111 1.83102C48.2816 2.96052 47.5801 4.51652 47.5801 6.22841V10.2199H47.5742C47.5786 11.92 48.2816 13.4731 49.4096 14.604L49.4155 14.6011Z" fill="#333A42"/>
<path fill-rule="evenodd" clip-rule="evenodd" d="M170.748 47.1212C170.748 56.7558 159.039 61.6032 152.226 54.7924C145.414 47.9801 150.263 36.2704 159.898 36.2704C165.922 36.2704 170.748 41.0972 170.748 47.1212ZM159.909 41.0796C154.53 41.0796 151.821 47.5845 155.633 51.3906C159.434 55.185 165.939 52.4966 165.939 47.1227C165.939 43.7607 163.274 41.0796 159.908 41.0796H159.909Z" fill="#333A42"/>
<path fill-rule="evenodd" clip-rule="evenodd" d="M195 47.1212C195 56.7558 183.29 61.6032 176.478 54.7924C169.666 47.9801 174.515 36.2704 184.149 36.2704C190.173 36.2704 195 41.0972 195 47.1212ZM184.161 41.0796C178.781 41.0796 176.072 47.5845 179.884 51.3906C183.686 55.185 190.191 52.4966 190.191 47.1227C190.191 43.7607 187.526 41.0796 184.159 41.0796H184.161Z" fill="#333A42"/>
</g>
<g opacity="0.1" clip-path="url(#clip2_2517_6579)">
<path fill-rule="evenodd" clip-rule="evenodd" d="M1364.73 299.331C1364.73 295.707 1370.23 295.699 1370.23 299.331C1370.23 302.964 1364.73 302.961 1364.73 299.331Z" fill="white"/>
<path fill-rule="evenodd" clip-rule="evenodd" d="M1286.71 310.952V273.363C1286.71 271.652 1286.01 270.095 1284.88 268.965C1283.75 267.836 1282.2 267.134 1280.49 267.134H1250.23C1248.52 267.134 1246.96 267.836 1245.83 268.965C1244.7 270.095 1244 271.652 1244 273.363V277.331C1244 279.041 1244.7 280.599 1245.83 281.728C1246.96 282.858 1248.52 283.559 1250.23 283.559H1260.92C1264.22 283.559 1266.17 284.702 1267.32 287.005C1268.34 289.039 1268.59 291.914 1268.59 295.719V325.981C1268.59 326.196 1268.6 326.386 1268.61 326.555C1268.72 328.154 1269.29 329.657 1270.22 330.752C1271.01 331.68 1272.07 332.305 1273.33 332.408V327.276C1273.33 326.518 1273.94 325.898 1274.7 325.898C1275.46 325.898 1276.08 326.518 1276.08 327.276V331.81C1277.07 331.338 1278.13 330.623 1279.17 329.77V322.756C1279.17 321.999 1279.79 321.378 1280.55 321.378C1281.3 321.378 1281.92 321.999 1281.92 322.756V327.143C1283.54 325.371 1284.84 323.489 1285.44 322.022C1286.8 318.668 1286.75 313.627 1286.73 311.529C1286.72 311.013 1286.72 311.31 1286.72 310.957L1286.71 310.952Z" fill="white"/>
<path fill-rule="evenodd" clip-rule="evenodd" d="M1379.61 305.382C1382.68 303.339 1386.3 302.732 1389.83 304.173C1393.08 305.498 1390.94 310.057 1388 308.666C1387.66 308.504 1387.3 308.385 1386.94 308.304C1383.21 307.5 1379.64 310.481 1379.64 314.263V322.71C1379.64 325.873 1374.83 325.873 1374.83 322.71V305.804C1374.83 302.789 1379.2 302.648 1379.61 305.38L1379.61 305.382Z" fill="white"/>
<path fill-rule="evenodd" clip-rule="evenodd" d="M1365.08 305.805C1365.08 302.649 1369.89 302.658 1369.89 305.805V322.711C1369.89 325.867 1365.08 325.879 1365.08 322.711V305.805Z" fill="white"/>
<path fill-rule="evenodd" clip-rule="evenodd" d="M1344.11 305.268C1345.93 303.97 1347.75 303.406 1350.16 303.406C1359.79 303.406 1364.62 315.124 1357.82 321.928C1351.01 328.738 1339.3 323.898 1339.3 314.263V297.671C1339.3 294.507 1344.11 294.512 1344.11 297.665V305.268ZM1350.16 320.3C1355.51 320.3 1358.22 313.772 1354.43 309.989C1350.63 306.193 1344.11 308.875 1344.11 314.257C1344.11 317.613 1346.81 320.3 1350.16 320.3Z" fill="white"/>
<path fill-rule="evenodd" clip-rule="evenodd" d="M1331.97 323.129C1328.22 325.602 1323.62 325.901 1319.78 323.257C1316.81 321.218 1315.04 317.856 1315.04 314.257C1315.04 305.22 1325.48 300.225 1332.46 305.608C1333.76 303.914 1336.75 304.738 1336.75 307.107V322.711C1336.75 325.733 1332.37 325.861 1331.97 323.129H1331.97ZM1325.91 308.216C1320.53 308.216 1317.82 314.721 1321.63 318.527C1325.43 322.321 1331.94 319.633 1331.94 314.259C1331.94 310.897 1329.27 308.216 1325.91 308.216Z" fill="white"/>
<path fill-rule="evenodd" clip-rule="evenodd" d="M1310.04 300.046V322.71C1310.04 325.895 1305.26 325.863 1305.26 322.71V300.046H1298.6C1295.46 300.046 1295.46 295.272 1298.6 295.272H1316.71C1319.87 295.272 1319.87 300.046 1316.71 300.046H1310.04Z" fill="white"/>
<path fill-rule="evenodd" clip-rule="evenodd" d="M1293.42 281.601C1294.54 282.723 1296.08 283.42 1297.79 283.42H1297.81V283.426L1307.84 283.395C1311.83 283.384 1315.59 281.797 1318.41 279.472C1321.31 277.074 1323.18 273.921 1323.18 270.968C1323.18 269.938 1322.56 269.044 1321.64 268.372C1320.52 267.546 1319 267.054 1317.54 267.004V271.881C1317.54 272.639 1316.92 273.259 1316.16 273.259C1315.4 273.259 1314.78 272.639 1314.78 271.881V267H1312.25V271.88C1312.25 272.637 1311.63 273.258 1310.87 273.258C1310.11 273.258 1309.49 272.637 1309.49 271.88V267H1306.95V271.88C1306.95 272.637 1306.34 273.258 1305.58 273.258C1304.82 273.258 1304.2 272.637 1304.2 271.88V267H1297.81C1296.1 267 1294.54 267.702 1293.41 268.831C1292.28 269.961 1291.58 271.517 1291.58 273.228V277.22H1291.57C1291.58 278.92 1292.28 280.473 1293.41 281.604L1293.42 281.601Z" fill="#333A42"/>
<path fill-rule="evenodd" clip-rule="evenodd" d="M1414.75 314.121C1414.75 323.756 1403.04 328.603 1396.23 321.792C1389.41 314.98 1394.26 303.271 1403.9 303.271C1409.92 303.271 1414.75 308.097 1414.75 314.121ZM1403.91 308.08C1398.53 308.08 1395.82 314.585 1399.63 318.391C1403.43 322.185 1409.94 319.497 1409.94 314.123C1409.94 310.761 1407.27 308.08 1403.91 308.08H1403.91Z" fill="#333A42"/>
<path fill-rule="evenodd" clip-rule="evenodd" d="M1439 314.121C1439 323.756 1427.29 328.603 1420.48 321.792C1413.67 314.98 1418.51 303.271 1428.15 303.271C1434.17 303.271 1439 308.097 1439 314.121ZM1428.16 308.08C1422.78 308.08 1420.07 314.585 1423.88 318.391C1427.69 322.185 1434.19 319.497 1434.19 314.123C1434.19 310.761 1431.53 308.08 1428.16 308.08H1428.16Z" fill="#333A42"/>
</g>
</g>
<defs>
<clipPath id="clip0_2517_6579">
<rect width="1439" height="332" fill="white"/>
</clipPath>
<clipPath id="clip1_2517_6579">
<rect width="195" height="65.2682" fill="white"/>
</clipPath>
<clipPath id="clip2_2517_6579">
<rect width="195" height="65.2682" fill="white" transform="translate(1244 267)"/>
</clipPath>
</defs>
</svg>
