<svg width="132" height="45" viewBox="0 0 132 45" fill="none" xmlns="http://www.w3.org/2000/svg">
<g clip-path="url(#clip0_2318_2632)">
<path fill-rule="evenodd" clip-rule="evenodd" d="M81.7217 21.7932C81.7217 19.3402 85.447 19.3342 85.447 21.7932C85.447 24.2522 81.7217 24.2502 81.7217 21.7932Z" fill="white"/>
<path fill-rule="evenodd" clip-rule="evenodd" d="M28.9148 29.66V4.21469C28.9148 3.05686 28.4399 2.00258 27.6753 1.238C26.9107 0.473413 25.8574 -0.00146484 24.6986 -0.00146484H4.21516C3.05733 -0.00146484 2.00305 0.473413 1.23846 1.238C0.474877 2.00258 0 3.05686 0 4.21469V6.90068C0 8.05851 0.474877 9.1128 1.23946 9.87738C2.00404 10.642 3.05733 11.1168 4.21615 11.1168H11.4538C13.6858 11.1168 15.0059 11.8904 15.7864 13.4494C16.4754 14.8263 16.6466 16.7726 16.6466 19.348V39.8335C16.6466 39.9788 16.6506 40.1073 16.6585 40.2217C16.7342 41.3039 17.1215 42.3214 17.7507 43.063C18.2843 43.6912 19.0011 44.1143 19.8513 44.184V40.7096C19.8513 40.1969 20.2704 39.7767 20.7841 39.7767C21.2978 39.7767 21.7169 40.1969 21.7169 40.7096V43.7789C22.3889 43.4593 23.1037 42.9754 23.8056 42.398V37.6502C23.8056 37.1375 24.2247 36.7174 24.7384 36.7174C25.2521 36.7174 25.6713 37.1375 25.6713 37.6502V40.62C26.7664 39.4203 27.6464 38.146 28.0496 37.1535C28.9715 34.8826 28.9377 31.4709 28.9227 30.0502C28.9187 29.7008 28.9167 29.9019 28.9167 29.6629L28.9148 29.66Z" fill="white"/>
<path fill-rule="evenodd" clip-rule="evenodd" d="M91.7958 25.8889C93.8725 24.5061 96.3256 24.0949 98.7179 25.0706C100.917 25.9676 99.4645 29.0538 97.4784 28.112C97.2484 28.0025 97.0055 27.9218 96.7566 27.8671C94.2369 27.3225 91.8177 29.3405 91.8177 31.9011V37.6185C91.8177 39.7599 88.5623 39.7599 88.5623 37.6185V26.1747C88.5623 24.1338 91.519 24.0382 91.7968 25.8879L91.7958 25.8889Z" fill="white"/>
<path fill-rule="evenodd" clip-rule="evenodd" d="M81.9617 26.1758C81.9617 24.0393 85.2171 24.0453 85.2171 26.1758V37.6196C85.2171 39.7561 81.9617 39.764 81.9617 37.6196V26.1758Z" fill="white"/>
<path fill-rule="evenodd" clip-rule="evenodd" d="M67.7642 25.8124C68.9997 24.9334 70.2322 24.5521 71.8619 24.5521C78.3818 24.5521 81.6532 32.4836 77.0467 37.09C72.4374 41.6994 64.5088 38.4231 64.5088 31.9012V20.6694C64.5088 18.528 67.7642 18.531 67.7642 20.6654V25.8124ZM71.8619 35.9879C75.4847 35.9879 77.3185 31.5687 74.753 29.0081C72.1775 26.4386 67.7642 28.2535 67.7642 31.8972C67.7642 34.1691 69.5921 35.9879 71.8619 35.9879Z" fill="white"/>
<path fill-rule="evenodd" clip-rule="evenodd" d="M59.5478 37.9025C57.0072 39.577 53.8991 39.7791 51.2957 37.9891C49.2897 36.6093 48.092 34.3334 48.092 31.8973C48.092 25.7797 55.1525 22.3988 59.8784 26.0425C60.7604 24.8956 62.7834 25.4531 62.7834 27.057V37.6197C62.7834 39.6656 59.8226 39.7522 59.5488 37.9025H59.5478ZM55.4452 27.8076C51.8035 27.8076 49.9686 32.2109 52.5501 34.7874C55.1236 37.3559 59.5279 35.5361 59.5279 31.8983C59.5279 29.6225 57.724 27.8076 55.4452 27.8076Z" fill="white"/>
<path fill-rule="evenodd" clip-rule="evenodd" d="M44.7031 22.2775V37.6189C44.7031 39.7752 41.4715 39.7533 41.4715 37.6189V22.2775H36.9577C34.8352 22.2775 34.8362 19.0459 36.9577 19.0459H49.2169C51.3564 19.0459 51.3574 22.2775 49.2169 22.2775H44.7031Z" fill="white"/>
<path fill-rule="evenodd" clip-rule="evenodd" d="M33.4505 9.88382C34.2091 10.6434 35.2565 11.1153 36.4103 11.1153H36.4262V11.1193L43.2149 11.0984C45.9158 11.0904 48.4624 10.0162 50.3689 8.44227C52.3341 6.81952 53.5965 4.68506 53.5965 2.68599C53.5965 1.98911 53.1774 1.38381 52.5591 0.928848C51.7985 0.369349 50.7671 0.0368354 49.7795 0.00298665V3.30423C49.7795 3.81694 49.3604 4.23706 48.8467 4.23706C48.333 4.23706 47.9139 3.81694 47.9139 3.30423V0H46.1976V3.30324C46.1976 3.81594 45.7784 4.23607 45.2647 4.23607C44.751 4.23607 44.3319 3.81594 44.3319 3.30324V0H42.6156V3.30324C42.6156 3.81594 42.1964 4.23607 41.6827 4.23607C41.169 4.23607 40.7499 3.81594 40.7499 3.30324V0H36.4232C35.2654 0 34.2111 0.474877 33.4475 1.23946C32.683 2.00404 32.2081 3.05733 32.2081 4.21616V6.91808H32.2041C32.2071 8.06893 32.683 9.12024 33.4465 9.88581L33.4505 9.88382Z" fill="white"/>
<path fill-rule="evenodd" clip-rule="evenodd" d="M115.583 31.8974C115.583 38.4193 107.657 41.7006 103.046 37.0902C98.4341 32.4788 101.716 24.5522 108.238 24.5522C112.316 24.5522 115.583 27.8196 115.583 31.8974ZM108.246 27.8077C104.605 27.8077 102.771 32.211 105.351 34.7875C107.925 37.356 112.328 35.5362 112.328 31.8984C112.328 29.6226 110.524 27.8077 108.245 27.8077H108.246Z" fill="white"/>
<path fill-rule="evenodd" clip-rule="evenodd" d="M132 31.8974C132 38.4193 124.073 41.7006 119.462 37.0902C114.851 32.4788 118.133 24.5522 124.655 24.5522C128.733 24.5522 132 27.8196 132 31.8974ZM124.663 27.8077C121.021 27.8077 119.187 32.211 121.768 34.7875C124.341 37.356 128.745 35.5362 128.745 31.8984C128.745 29.6226 126.941 27.8077 124.662 27.8077H124.663Z" fill="white"/>
</g>
<defs>
<clipPath id="clip0_2318_2632">
<rect width="132" height="44.1815" fill="white"/>
</clipPath>
</defs>
</svg>
