<svg width="1206" height="405" viewBox="0 0 1206 405" fill="none" xmlns="http://www.w3.org/2000/svg">
<g opacity="0.03" clip-path="url(#clip0_2261_13745)">
<path fill-rule="evenodd" clip-rule="evenodd" d="M746.639 200.71C746.639 178.298 780.675 178.244 780.675 200.71C780.675 223.177 746.639 223.158 746.639 200.71Z" fill="#DD6600"/>
<path fill-rule="evenodd" clip-rule="evenodd" d="M264.176 272.582V40.1044C264.176 29.5261 259.837 19.8938 252.852 12.9083C245.866 5.92276 236.243 1.58411 225.655 1.58411H38.5112C27.9329 1.58411 18.3006 5.92276 11.3151 12.9083C4.33865 19.8938 0 29.5261 0 40.1044V64.6447C0 75.223 4.33865 84.8553 11.3242 91.8408C18.3097 98.8263 27.9329 103.165 38.5203 103.165H104.646C125.039 103.165 137.1 110.232 144.231 124.476C150.525 137.056 152.089 154.838 152.089 178.368V365.531C152.089 366.859 152.126 368.032 152.198 369.078C152.89 378.965 156.428 388.261 162.176 395.037C167.052 400.777 173.601 404.642 181.368 405.279V373.535C181.368 368.851 185.198 365.012 189.891 365.012C194.584 365.012 198.414 368.851 198.414 373.535V401.577C204.553 398.657 211.084 394.237 217.497 388.961V345.584C217.497 340.9 221.326 337.061 226.019 337.061C230.713 337.061 234.542 340.9 234.542 345.584V372.716C244.547 361.756 252.588 350.113 256.272 341.045C264.694 320.298 264.385 289.127 264.248 276.147C264.212 272.955 264.194 274.792 264.194 272.609L264.176 272.582Z" fill="#DD6600"/>
<path fill-rule="evenodd" clip-rule="evenodd" d="M838.68 238.13C857.654 225.496 880.066 221.74 901.923 230.654C922.015 238.849 908.744 267.046 890.598 258.441C888.497 257.441 886.278 256.704 884.004 256.204C860.983 251.228 838.88 269.665 838.88 293.059V345.296C838.88 364.861 809.137 364.861 809.137 345.296V240.741C809.137 222.095 836.151 221.221 838.689 238.121L838.68 238.13Z" fill="#DD6600"/>
<path fill-rule="evenodd" clip-rule="evenodd" d="M748.832 240.749C748.832 221.229 778.574 221.284 778.574 240.749V345.304C778.574 364.823 748.832 364.896 748.832 345.304V240.749Z" fill="#DD6600"/>
<path fill-rule="evenodd" clip-rule="evenodd" d="M619.119 237.429C630.406 229.398 641.667 225.914 656.557 225.914C716.124 225.914 746.013 298.379 703.927 340.465C661.814 382.578 589.376 352.644 589.376 293.058V190.441C589.376 170.876 619.119 170.903 619.119 190.404V237.429ZM656.557 330.396C689.656 330.396 706.41 290.02 682.971 266.626C659.44 243.15 619.119 259.732 619.119 293.022C619.119 313.778 635.818 330.396 656.557 330.396Z" fill="#DD6600"/>
<path fill-rule="evenodd" clip-rule="evenodd" d="M544.051 347.887C520.838 363.186 492.442 365.033 468.656 348.679C450.328 336.072 439.386 315.279 439.386 293.022C439.386 237.129 503.893 206.24 547.07 239.53C555.129 229.052 573.612 234.145 573.612 248.799V345.304C573.612 363.996 546.561 364.787 544.06 347.887H544.051ZM506.567 255.657C473.295 255.657 456.532 295.887 480.117 319.427C503.629 342.894 543.869 326.267 543.869 293.031C543.869 272.238 527.387 255.657 506.567 255.657Z" fill="#DD6600"/>
<path fill-rule="evenodd" clip-rule="evenodd" d="M408.424 205.13V345.295C408.424 364.996 378.899 364.796 378.899 345.295V205.13H337.659C318.267 205.13 318.276 175.605 337.659 175.605H449.664C469.21 175.605 469.22 205.13 449.664 205.13H408.424Z" fill="#DD6600"/>
<path fill-rule="evenodd" clip-rule="evenodd" d="M305.616 91.0565C312.547 97.9965 322.116 102.308 332.658 102.308H332.803V102.344L394.827 102.153C419.504 102.08 442.771 92.2662 460.189 77.8859C478.144 63.0599 489.677 43.5587 489.677 25.2945C489.677 18.9275 485.848 13.3973 480.199 9.24057C473.25 4.12878 463.827 1.09081 454.804 0.78156V30.9429C454.804 35.6272 450.975 39.4656 446.281 39.4656C441.588 39.4656 437.759 35.6272 437.759 30.9429V0.754272H422.078V30.9338C422.078 35.6181 418.249 39.4565 413.555 39.4565C408.862 39.4565 405.032 35.6181 405.032 30.9338V0.754272H389.351V30.9338C389.351 35.6181 385.522 39.4565 380.829 39.4565C376.135 39.4565 372.306 35.6181 372.306 30.9338V0.754272H332.776C322.198 0.754272 312.565 5.09293 305.589 12.0784C298.604 19.0639 294.265 28.6872 294.265 39.2746V63.9604H294.229C294.256 74.475 298.604 84.0801 305.58 91.0747L305.616 91.0565Z" fill="#333A42"/>
<path fill-rule="evenodd" clip-rule="evenodd" d="M1056.01 292.181C1056.01 351.767 983.593 381.746 941.462 339.624C899.33 297.493 929.319 225.073 988.905 225.073C1026.16 225.073 1056.01 254.925 1056.01 292.181ZM988.977 254.816C955.705 254.816 938.951 295.046 962.527 318.586C986.04 342.053 1026.27 325.426 1026.27 292.19C1026.27 271.397 1009.79 254.816 988.968 254.816H988.977Z" fill="#333A42"/>
<path fill-rule="evenodd" clip-rule="evenodd" d="M1206 292.181C1206 351.767 1133.58 381.746 1091.45 339.624C1049.32 297.493 1079.31 225.073 1138.89 225.073C1176.15 225.073 1206 254.925 1206 292.181ZM1138.96 254.816C1105.69 254.816 1088.94 295.046 1112.51 318.586C1136.03 342.053 1176.26 325.426 1176.26 292.19C1176.26 271.397 1159.78 254.816 1138.96 254.816H1138.96Z" fill="#333A42"/>
</g>
<defs>
<clipPath id="clip0_2261_13745">
<rect width="1206" height="403.659" fill="white" transform="translate(0 0.754272)"/>
</clipPath>
</defs>
</svg>
