<svg width="80" height="80" viewBox="0 0 80 80" fill="none" xmlns="http://www.w3.org/2000/svg">
<path d="M0 11.9915C0 5.36404 5.37258 -0.00854492 12 -0.00854492H68C74.6274 -0.00854492 80 5.36404 80 11.9915V67.9915C80 74.6189 74.6274 79.9915 68 79.9915H12C5.37258 79.9915 0 74.6189 0 67.9915V11.9915Z" fill="#DD6600" fill-opacity="0.1"/>
<path d="M39.7358 63.0483C36.8722 63.0483 34.3267 62.5577 32.0994 61.5767C29.8854 60.5956 28.1354 59.2301 26.8494 57.4801C25.5634 55.7301 24.8807 53.7083 24.8011 51.4148H32.2784C32.3447 52.5151 32.7093 53.4763 33.3722 54.2983C34.035 55.107 34.9167 55.7367 36.017 56.1875C37.1174 56.6382 38.3504 56.8636 39.7159 56.8636C41.1742 56.8636 42.4669 56.6117 43.5938 56.1079C44.7206 55.5909 45.6023 54.875 46.2386 53.9602C46.875 53.0454 47.1866 51.9915 47.1733 50.7983C47.1866 49.5653 46.8684 48.4782 46.2188 47.5369C45.5691 46.5956 44.6278 45.8598 43.3949 45.3295C42.1752 44.7992 40.7036 44.5341 38.9801 44.5341H35.3807V38.8466H38.9801C40.3987 38.8466 41.6383 38.6013 42.6989 38.1108C43.7727 37.6202 44.6146 36.9308 45.2244 36.0426C45.8343 35.1411 46.1326 34.1004 46.1193 32.9204C46.1326 31.767 45.8741 30.7661 45.3438 29.9176C44.8267 29.0558 44.0909 28.3863 43.1364 27.9091C42.1951 27.4318 41.0881 27.1932 39.8153 27.1932C38.5691 27.1932 37.4157 27.4185 36.3551 27.8693C35.2945 28.3201 34.4394 28.963 33.7898 29.7983C33.1402 30.6202 32.7955 31.6013 32.7557 32.7415H25.6562C25.7093 30.4612 26.3655 28.4593 27.625 26.7358C28.8977 24.999 30.5947 23.6468 32.7159 22.679C34.8371 21.6979 37.2169 21.2074 39.8551 21.2074C42.5729 21.2074 44.9328 21.7178 46.9347 22.7386C48.9498 23.7462 50.5076 25.1051 51.608 26.8153C52.7083 28.5255 53.2585 30.4147 53.2585 32.4829C53.2718 34.7765 52.5956 36.6988 51.2301 38.25C49.8778 39.8011 48.1013 40.8153 45.9006 41.2926V41.6108C48.7642 42.0085 50.9583 43.0691 52.483 44.7926C54.0208 46.5028 54.7831 48.6307 54.7699 51.1761C54.7699 53.4564 54.1203 55.4981 52.821 57.3011C51.535 59.0909 49.7585 60.4962 47.4915 61.517C45.2377 62.5379 42.6525 63.0483 39.7358 63.0483Z" fill="#DD6600"/>
</svg>
