<svg width="173" height="145" viewBox="0 0 173 145" fill="none" xmlns="http://www.w3.org/2000/svg">
<path d="M0.666667 139.118C0.666667 136.172 3.05448 133.784 6 133.784C8.94552 133.784 11.3333 136.172 11.3333 139.118C11.3333 142.063 8.94552 144.451 6 144.451C3.05448 144.451 0.666667 142.063 0.666667 139.118ZM105 72.6178L105.807 73.2087L105 72.6178ZM173 6.61792L162.772 11.9769L163.245 0.439621L173 6.61792ZM6.27778 138.157C7.86656 138.617 9.84041 138.921 12.1737 138.981L12.1223 140.98C9.64998 140.916 7.50289 140.593 5.72222 140.078L6.27778 138.157ZM24.2273 137.497C27.7611 136.623 31.6457 135.325 35.8389 133.503L36.6363 135.337C32.3476 137.201 28.357 138.536 24.7075 139.439L24.2273 137.497ZM46.8102 127.869C50.1173 125.917 53.5609 123.661 57.1258 121.064L58.3034 122.68C54.6887 125.314 51.1915 127.606 47.8267 129.591L46.8102 127.869ZM66.8249 113.378C69.8055 110.826 72.8534 108.041 75.9614 105.005L77.3588 106.436C74.2207 109.501 71.1406 112.315 68.1257 114.897L66.8249 113.378ZM84.5757 96.0969C87.2581 93.168 89.9776 90.053 92.7297 86.7416L94.2679 88.02C91.4959 91.3553 88.7553 94.4944 86.0506 97.4477L84.5757 96.0969ZM100.467 77.0148C101.703 75.3924 102.946 73.73 104.193 72.0269L105.807 73.2087C104.552 74.9221 103.302 76.5946 102.057 78.2273L100.467 77.0148ZM104.193 72.0269C105.427 70.3423 106.641 68.6975 107.836 67.0915L109.441 68.2853C108.249 69.8872 107.038 71.5281 105.807 73.2087L104.193 72.0269ZM115.224 57.3302C117.85 53.9245 120.37 50.7252 122.787 47.7213L124.345 48.9753C121.937 51.9676 119.426 55.1559 116.808 58.5512L115.224 57.3302ZM130.562 38.311C133.432 34.9342 136.134 31.8709 138.674 29.0962L140.149 30.4466C137.627 33.2016 134.942 36.2465 132.086 39.6064L130.562 38.311ZM147.171 20.2727C150.592 16.9244 153.632 14.2215 156.321 12.0678L157.571 13.6287C154.944 15.7333 151.953 18.3905 148.57 21.702L147.171 20.2727Z" fill="#DD6600"/>
</svg>
