<svg width="27" height="26" viewBox="0 0 27 26" fill="none" xmlns="http://www.w3.org/2000/svg">
<circle cx="13.3477" cy="13" r="13" fill="#F3F4F4"/>
<path d="M18.7218 10.3937C18.73 10.5066 18.73 10.6194 18.73 10.7333C18.73 14.203 15.9398 18.2047 10.8377 18.2047V18.2026C9.33058 18.2047 7.85473 17.796 6.58594 17.0254C6.80509 17.0504 7.02534 17.0628 7.24615 17.0634C8.49516 17.0644 9.70847 16.6677 10.6911 15.9371C9.50415 15.9158 8.4633 15.1832 8.09969 14.1136C8.51548 14.1895 8.9439 14.1739 9.352 14.0683C8.05795 13.8208 7.12696 12.7445 7.12696 11.4945C7.12696 11.4831 7.12696 11.4722 7.12696 11.4612C7.51254 11.6645 7.94425 11.7774 8.38586 11.7899C7.16705 11.0187 6.79136 9.4838 7.52737 8.28371C8.93567 9.92421 11.0135 10.9215 13.2441 11.0271C13.0205 10.115 13.3259 9.15934 14.0465 8.51822C15.1637 7.52404 16.9208 7.575 17.971 8.63209C18.5922 8.51614 19.1876 8.30035 19.7324 7.99461C19.5254 8.60245 19.092 9.11878 18.5131 9.44688C19.0629 9.38552 19.6001 9.24617 20.1059 9.03351C19.7335 9.56179 19.2645 10.022 18.7218 10.3937Z" fill="#333A42"/>
</svg>
